# xmcd
#
# Track frame offsets:
#	150
#	18399
#	38475
#	54240
#	76277
#	90869
#	111829
#	128339
#	146620
#	160346
#	175224
#	189884
#	209285
#	225818
#	239506
#	258503
#
# Disc length: 3777 seconds
#
# Revision: 2
# Processed by: cddbd v1.5.2PL0 Copyright (c) Steve Scherf et al.
# Submitted via: audiograbber 1.83.01
#
DISCID=b90ebf10
DTITLE=Various Artist - Tutto Amore CD 2
DYEAR=1900
DGENRE=Italo
TTITLE0=Ricci E Poveri - Nascerà Gesù
TTITLE1=Walter Bassani - Soltano Amore
TTITLE2=Isa Pola - Roma de Notte
TTITLE3=Matia Bazar - Ti Sento
TTITLE4=Franco Laporta - Buonasera Buonasera
TTITLE5=I Santo California - Un Angolo
TTITLE6=Antonio Caprio - Ricordi
TTITLE7=Mirco Guida - Adesso Tu
TTITLE8=Paolo Mengoli - A Chi
TTITLE9=Fabiola Paretti - Non Ho L´etá
TTITLE10=I Nuovi Angeli - Uno Strano Carnevale
TTITLE11=Julie - Cuore Bandito
TTITLE12=Daniele Del Duca - Venezia
TTITLE13=Caludio Lippi - Dopo Di Me
TTITLE14=Fiordaliso - Il Mio Angelo
TTITLE15=ACDP - Ballando Ballando
EXTD=
EXTT0=
EXTT1=
EXTT2=
EXTT3=
EXTT4=
EXTT5=
EXTT6=
EXTT7=
EXTT8=
EXTT9=
EXTT10=
EXTT11=
EXTT12=
EXTT13=
EXTT14=
EXTT15=
PLAYORDER=
